<svg width="106" height="100" viewBox="0 0 106 100" fill="none" xmlns="http://www.w3.org/2000/svg">
<g clip-path="url(#clip0_116_1601)">
<path d="M100.499 13H87.1661V23C87.1661 23.963 86.9765 24.9166 86.6079 25.8064C86.2394 26.6961 85.6992 27.5045 85.0183 28.1855C84.3373 28.8664 83.5289 29.4066 82.6392 29.7751C81.7494 30.1437 80.7958 30.3334 79.8328 30.3334C78.8698 30.3334 77.9162 30.1437 77.0265 29.7751C76.1367 29.4066 75.3283 28.8664 74.6474 28.1855C73.9664 27.5045 73.4262 26.6961 73.0577 25.8064C72.6892 24.9166 72.4995 23.963 72.4995 23V13H33.6661V23C33.6661 24.9449 32.8935 26.8102 31.5183 28.1855C30.143 29.5607 28.2777 30.3334 26.3328 30.3334C24.3879 30.3334 22.5226 29.5607 21.1474 28.1855C19.7721 26.8102 18.9995 24.9449 18.9995 23V13H5.66614C4.87288 12.991 4.08587 13.1411 3.35165 13.4416C2.61743 13.742 1.95091 14.1866 1.39152 14.7491C0.832122 15.3116 0.391207 15.9806 0.0948516 16.7165C-0.201504 17.4523 -0.347282 18.2402 -0.33386 19.0334V93.6334C-0.347103 94.4126 -0.206713 95.1867 0.0792924 95.9117C0.365298 96.6366 0.791315 97.2981 1.33301 97.8584C1.87471 98.4187 2.52147 98.8667 3.23636 99.177C3.95125 99.4873 4.72026 99.6537 5.49947 99.6667H100.499C101.279 99.6537 102.048 99.4873 102.763 99.177C103.477 98.8667 104.124 98.4187 104.666 97.8584C105.208 97.2981 105.634 96.6366 105.92 95.9117C106.206 95.1867 106.346 94.4126 106.333 93.6334V19.0334C106.346 18.2541 106.206 17.48 105.92 16.755C105.634 16.0301 105.208 15.3686 104.666 14.8083C104.124 14.2481 103.477 13.8 102.763 13.4897C102.048 13.1794 101.279 13.013 100.499 13ZM26.3328 79.6667H19.6661V73H26.3328V79.6667ZM26.3328 63H19.6661V56.3334H26.3328V63ZM26.3328 46.3334H19.6661V39.6667H26.3328V46.3334ZM46.3328 79.6667H39.6661V73H46.3328V79.6667ZM46.3328 63H39.6661V56.3334H46.3328V63ZM46.3328 46.3334H39.6661V39.6667H46.3328V46.3334ZM66.3328 79.6667H59.6661V73H66.3328V79.6667ZM66.3328 63H59.6661V56.3334H66.3328V63ZM66.3328 46.3334H59.6661V39.6667H66.3328V46.3334ZM86.3328 79.6667H79.6661V73H86.3328V79.6667ZM86.3328 63H79.6661V56.3334H86.3328V63ZM86.3328 46.3334H79.6661V39.6667H86.3328V46.3334Z" fill="#131316" fill-opacity="0.05"/>
<path d="M26.3333 26.3333C27.2174 26.3333 28.0652 25.9821 28.6904 25.357C29.3155 24.7319 29.6667 23.884 29.6667 23V2.99996C29.6667 2.1159 29.3155 1.26806 28.6904 0.642937C28.0652 0.0178153 27.2174 -0.333374 26.3333 -0.333374C25.4493 -0.333374 24.6014 0.0178153 23.9763 0.642937C23.3512 1.26806 23 2.1159 23 2.99996V23C23 23.884 23.3512 24.7319 23.9763 25.357C24.6014 25.9821 25.4493 26.3333 26.3333 26.3333Z" fill="#131316" fill-opacity="0.05"/>
<path d="M79.6666 26.3333C80.5507 26.3333 81.3986 25.9821 82.0237 25.357C82.6488 24.7319 83 23.884 83 23V2.99996C83 2.1159 82.6488 1.26806 82.0237 0.642937C81.3986 0.0178153 80.5507 -0.333374 79.6666 -0.333374C78.7826 -0.333374 77.9347 0.0178153 77.3096 0.642937C76.6845 1.26806 76.3333 2.1159 76.3333 2.99996V23C76.3333 23.884 76.6845 24.7319 77.3096 25.357C77.9347 25.9821 78.7826 26.3333 79.6666 26.3333Z" fill="#131316" fill-opacity="0.05"/>
</g>
<defs>
<clipPath id="clip0_116_1601">
<rect width="106" height="100" fill="white"/>
</clipPath>
</defs>
</svg>
