<svg width="22" height="24" viewBox="0 0 22 24" fill="none" xmlns="http://www.w3.org/2000/svg">
<path d="M14.7339 9.67434C13.8368 10.4211 13.3885 11.4597 13.5109 12.5077L13.4899 12.4902C13.6157 13.7235 13.078 14.9399 12.0203 15.815C10.9626 16.6902 9.49236 17.135 8.0018 17.0309L8.02285 17.0483C6.21813 16.9093 4.50184 17.7215 3.73165 19.079C2.96147 20.4365 4.21893 20.9856 5.50116 22.0456C6.78339 23.1055 7.81505 24.4486 9.4551 23.8102C11.0952 23.1717 12.0753 21.751 11.9057 20.2579L11.9279 20.2753C11.8021 19.0421 12.3397 17.8257 13.3974 16.9506C14.4552 16.0754 15.9254 15.6306 17.416 15.7347L17.3937 15.7173C19.3772 15.8649 21.2228 14.8642 21.851 13.3007C22.4793 11.7372 21.0101 11.0697 19.3147 10.2054C17.6192 9.34109 16.1428 8.50701 14.7374 9.67434H14.7339Z" fill="white"/>
<path d="M6.91257 14.8112C7.80978 14.0646 8.25774 13.0258 8.13435 11.9779L8.15657 11.9953C8.03065 10.7617 8.56861 9.54495 9.62688 8.66974C10.6852 7.79453 12.156 7.34996 13.647 7.45467L13.6248 7.43725C15.429 7.5771 17.1455 6.76586 17.9164 5.40898C18.6873 4.05209 16.6498 3.37242 15.3684 2.31225C14.0871 1.25207 13.837 0.0390659 12.1969 0.676875C10.5569 1.31468 9.57644 2.73486 9.74547 4.22764L9.72442 4.21023C9.85025 5.44347 9.31258 6.65989 8.25485 7.53502C7.19712 8.41015 5.7269 8.855 4.23634 8.75089L4.25738 8.76831C2.27401 8.62114 0.867215 8.97105 0.239354 10.5346C-0.388508 12.0981 0.239362 12.5079 1.88382 13.4946C3.57929 14.3587 5.5096 15.9785 6.91491 14.8112H6.91257Z" fill="white"/>
</svg>
